<svg width="58" height="58" viewBox="0 0 58 58" fill="none" xmlns="http://www.w3.org/2000/svg">
<rect width="58" height="58" rx="9" fill="url(#paint0_linear_1_3517)"/>
<path fill-rule="evenodd" clip-rule="evenodd" d="M43.4816 12.1639C42.3477 12.5283 41.6788 13.0874 37.8344 16.8831L33.9407 20.7272L31.4424 20.6544C28.4961 20.5688 26.567 20.7856 23.7601 21.518C20.5078 22.3665 18.9342 22.6443 17.3823 22.6432C15.5272 22.642 14.3046 22.3829 12.8561 21.6841C11.3579 20.9613 9.85585 19.5198 9.17568 18.152C8.64131 17.0775 8.2441 16.7545 7.68271 16.9381C7.47286 17.0067 7.21198 17.2188 7.10294 17.4091C6.83603 17.8751 7.08003 18.6024 7.93028 19.876C9.06883 21.5813 10.7027 22.8823 12.7189 23.6889C14.4228 24.3707 15.0499 24.4708 17.588 24.4669C20.071 24.4629 20.1571 24.4485 24.0345 23.3891C26.0447 22.8399 27.4671 22.637 29.8637 22.5579L32.1268 22.4834L25.8569 28.6775L19.5868 34.8714L17.4559 39.8579C16.2839 42.6004 15.3249 45.0072 15.3249 45.2063C15.3249 45.7289 15.6877 45.9795 16.8779 46.2794C18.9527 46.802 20.7667 46.9977 23.5544 47C28.234 47.0036 31.8097 46.224 35.8829 44.3114C38.1106 43.2655 39.6364 42.2842 41.0348 40.9981C43.85 38.4088 45.099 35.7308 45.0995 32.2827C45.0998 30.2437 44.5689 28.3479 43.499 26.5677L43.0505 25.8213L46.1055 22.782C49.4151 19.4895 49.8001 18.9637 49.9704 17.5026C50.2105 15.4444 48.9663 13.2836 47.0409 12.4146C46.0916 11.9863 44.4043 11.8674 43.4816 12.1639ZM46.292 14.2334C47.0207 14.5707 47.7935 15.5426 47.9778 16.3535C48.1125 16.946 48.1021 17.1872 47.9149 17.8213C47.7202 18.4811 47.5041 18.7709 46.2611 20.0396L44.8313 21.4988L42.5938 19.2987L40.3563 17.0987L41.8095 15.6956C42.9788 14.5667 43.3941 14.2518 43.9355 14.084C44.6904 13.8499 45.5865 13.9068 46.292 14.2334ZM43.3052 22.8476C43.3052 22.9225 39.4944 26.7372 34.8367 31.3247L26.3681 39.6656L24.2069 37.5403C23.0183 36.3713 22.0457 35.3537 22.0457 35.2787C22.0457 35.2037 25.8565 31.389 30.5142 26.8015L38.9828 18.4607L41.144 20.586C42.3326 21.7549 43.3052 22.7726 43.3052 22.8476ZM42.2615 28.354C42.9525 29.7779 43.2039 30.8683 43.2039 32.44C43.2039 34.0688 42.9379 35.1582 42.1982 36.5599C40.1893 40.3666 35.4381 43.2924 29.1093 44.6199C27.4239 44.9734 27.1294 44.9941 23.7327 44.998C21.4117 45.0007 20.0884 44.9522 19.9958 44.861C19.8963 44.763 20.9324 44.2759 23.3953 43.263L26.938 41.806L34.2639 34.5903C38.293 30.6218 41.634 27.3747 41.688 27.3747C41.742 27.3747 42 27.8153 42.2615 28.354ZM22.7976 38.8538C23.9086 39.9503 24.5245 40.6535 24.4416 40.7305C24.2616 40.8973 21.6376 41.963 21.4068 41.963C21.3056 41.963 21.2227 41.9123 21.2227 41.8503C21.2227 41.6985 20.2751 40.715 19.8635 40.4398L19.5329 40.2189L20.1885 38.6595C20.5493 37.8019 20.8841 37.1002 20.9326 37.1002C20.9812 37.1002 21.8205 37.8893 22.7976 38.8538ZM19.2985 42.4316L19.6167 42.7652L19.2197 42.9172C19.0012 43.0009 18.6765 43.1254 18.4982 43.1941C18.2189 43.3015 18.1875 43.2856 18.2722 43.0799C18.3262 42.9485 18.432 42.6737 18.507 42.4695C18.6758 42.0101 18.8869 42 19.2985 42.4316Z" fill="#46B9A1"/>
<defs>
<linearGradient id="paint0_linear_1_3517" x1="29" y1="0" x2="29" y2="58" gradientUnits="userSpaceOnUse">
<stop stop-color="#D5EDE8"/>
<stop offset="1" stop-color="#CEF8EF" stop-opacity="0"/>
</linearGradient>
</defs>
</svg>
